<?xml version="1.0" encoding="UTF-8" standalone="no"?>
<svg width="283px" height="282px" viewBox="0 0 283 282" version="1.1" xmlns="http://www.w3.org/2000/svg" xmlns:xlink="http://www.w3.org/1999/xlink">
    <defs>
        
        
    </defs>
    <g id="MVP" stroke="none" stroke-width="1" fill="none" fill-rule="evenodd">
        <g id="chiku" transform="translate(0.000000, -5.000000)">
            <g id="Group-3" transform="translate(0.000000, 0.015141)">
                <mask id="mask-2" fill="white">
                    <polygon id="path-1" points="282.988906 12.1465353 282.988906 286.592593 8.81877308e-13 286.592593 8.81877308e-13 5.39118519 282.988906 5.39118519 282.988906 12.1465353 282.991541 286.594204 -0.000334759618 286.594204 -0.000334759618 12.1465353 282.988906 12.1465353"></polygon>
                </mask>
                <g id="Clip-2"></g>
                <mask id="mask-4" fill="white">
                    <path d="M259.153774,32.804037 C215.212302,-7.06477778 182.106453,22.8165556 142.568302,24.1035185 C103.364717,25.3796667 62.0566038,-4.55574074 23.2415472,34.3451481 C10.9489434,48.5936667 -3.56150943,92.0692222 0.787849057,129.737222 C0.852603774,130.28337 1.27890566,130.726778 1.82392453,130.802481 C2.35275472,130.840333 2.90856604,130.569963 3.11362264,130.056259 L9.44339623,114.612704 C8.59079245,138.832481 10.3661509,200.271444 64.9381887,242.26537 C65.3105283,242.55737 65.8069811,242.606037 66.2224906,242.395148 C66.638,242.178852 66.9024151,241.746259 66.8862264,241.281222 L66.6973585,230.785444 C71.9586792,241.935519 84.3807925,252.171741 97.3479245,262.862185 C114.038453,276.61863 151.072755,290.056037 152.470377,285.789593 C164.773774,268.658926 180.584717,266.322926 197.599019,252.555667 C210.674075,241.978778 217.640604,235.316852 222.99366,224.210037 L222.729245,234.71663 C222.70766,235.187074 222.961283,235.614259 223.382189,235.825148 C223.803094,236.046852 224.304943,236.009 224.666491,235.722407 C279.600075,194.198926 274.856792,123.17263 274.203849,98.9474444 L280.404113,114.439667 C280.603774,114.958778 281.132604,115.261593 281.688415,115.196704 C282.233434,115.126407 282.659736,114.693815 282.735283,114.136852 C285.330868,77.1664074 267.550302,40.4230741 259.153774,32.804037" id="path-3"></path>
                </mask>
                <use id="Fill-1" fill="#95D600" xlink:href="#path-3"></use>
            </g>
            <path d="M199.532487,61.9321185 C178.24977,51.8527111 157.280034,59.390637 146.444411,74.6611556 C144.091657,77.9758963 139.164902,77.9758963 136.812147,74.6611556 C125.981921,59.390637 105.012185,51.8527111 83.7294679,61.9321185 C77.5076189,64.8791556 69.9097321,72.4603407 66.9579962,78.6896741 C52.3719962,109.4416 74.3939962,139.620341 103.431091,139.577081 L179.830864,139.577081 C208.867958,139.620341 230.889958,109.4416 216.303958,78.6896741 C213.352223,72.4603407 205.754336,64.8791556 199.532487,61.9321185" id="Fill-4" fill="#FFFFFF"></path>
            <path d="M191.23417,173.819489 C191.23417,205.663711 173.410434,242.839637 141.632057,242.839637 C109.853679,242.839637 92.0245472,205.663711 92.0245472,173.819489 C92.0245472,141.975267 109.853679,120.680896 141.632057,120.680896 C173.410434,120.680896 191.23417,141.975267 191.23417,173.819489" id="Fill-6" fill="#FFFFFF"></path>
            <path d="M191.23417,173.819489 C191.23417,205.663711 173.410434,242.839637 141.632057,242.839637 C109.853679,242.839637 92.0245472,205.663711 92.0245472,173.819489 C92.0245472,141.975267 109.853679,120.680896 141.632057,120.680896 C173.410434,120.680896 191.23417,141.975267 191.23417,173.819489 L191.23417,173.819489 Z" id="Stroke-8" stroke="#95D600" stroke-width="9.0342"></path>
            <path d="M138.947974,142.214274 C138.947974,144.7882 136.86503,146.875459 134.296426,146.875459 C131.727823,146.875459 129.644879,144.7882 129.644879,142.214274 C129.644879,139.640348 131.727823,137.553089 134.296426,137.553089 C136.86503,137.553089 138.947974,139.640348 138.947974,142.214274" id="Fill-10" fill="#95D600"></path>
            <path d="M153.618155,142.214274 C153.618155,144.7882 151.535211,146.875459 148.966608,146.875459 C146.398004,146.875459 144.31506,144.7882 144.31506,142.214274 C144.31506,139.640348 146.398004,137.553089 148.966608,137.553089 C151.535211,137.553089 153.618155,139.640348 153.618155,142.214274" id="Fill-12" fill="#95D600"></path>
            <path d="M141.630977,206.103874 C127.773468,206.103874 115.270411,192.293356 117.590789,189.124615 C120.013694,185.826096 126.570109,195.278244 141.630977,195.289059 C155.137732,195.294467 163.178109,185.966689 165.671166,189.124615 C168.099468,192.212244 154.150223,206.103874 141.630977,206.103874" id="Fill-14" fill="#95D600"></path>
            <path d="M141.630438,77.1826296 L141.630438,77.1826296 C145.515721,77.1826296 146.46006,72.808037 146.519419,72.4024815 C147.971004,62.7935185 151.564891,55.0122593 156.324362,47.0147037 C164.861192,32.6742593 184.249834,16.4033704 210.950362,15.6787778 C247.061909,15.0407037 265.106891,40.9421852 265.106891,40.9421852 C265.106891,40.9421852 235.562551,-10.0821111 175.141004,10.1524074 C175.038475,10.1902593 160.409306,16.7818889 141.581872,16.7818889 C123.099796,16.7818889 108.2224,10.1902593 108.119872,10.1524074 C47.6983245,-10.0821111 18.537117,41.0449259 18.537117,41.0449259 C18.537117,41.0449259 36.198966,15.0407037 72.3105132,15.6787778 C99.0110415,16.4033704 118.399683,32.6742593 126.936513,47.0147037 C131.695985,55.0122593 135.289872,62.7935185 136.741457,72.4024815 C136.800815,72.808037 137.745155,77.1826296 141.630438,77.1826296" id="Fill-16" fill="#82BC00"></path>
            <path d="M122.005442,110.990822 C118.211894,118.761267 108.854838,121.984081 101.095064,118.188081 C93.3406868,114.386674 90.1245358,105.004822 93.918083,97.2343778 C97.706234,89.4585259 107.068687,86.2411185 114.823064,90.0371185 C122.582838,93.8385259 125.798989,103.220378 122.005442,110.990822" id="Fill-18" fill="#231F1F"></path>
            <path d="M111.821683,95.3039333 C111.821683,98.5970444 114.487419,101.262896 117.768325,101.262896 C121.054626,101.262896 123.720362,98.5970444 123.720362,95.3039333 C123.720362,92.0108222 121.054626,89.3449704 117.768325,89.3449704 C114.487419,89.3449704 111.821683,92.0108222 111.821683,95.3039333" id="Fill-20" fill="#FFFFFF"></path>
            <path d="M189.74643,110.990822 C185.952883,118.761267 176.595826,121.984081 168.836053,118.188081 C161.081675,114.386674 157.865525,105.004822 161.659072,97.2343778 C165.447223,89.4585259 174.809675,86.2411185 182.564053,90.0371185 C190.323826,93.8385259 193.539977,103.220378 189.74643,110.990822" id="Fill-22" fill="#231F1F"></path>
            <path d="M179.562672,95.3039333 C179.562672,98.5970444 182.228408,101.262896 185.509313,101.262896 C188.795615,101.262896 191.461351,98.5970444 191.461351,95.3039333 C191.461351,92.0108222 188.795615,89.3449704 185.509313,89.3449704 C182.228408,89.3449704 179.562672,92.0108222 179.562672,95.3039333" id="Fill-24" fill="#FFFFFF"></path>
        </g>
    </g>
</svg>